<svg id="Icons" height="512" viewBox="0 0 74 74" width="512" xmlns="http://www.w3.org/2000/svg"><path d="m68.99 43.061a1 1 0 0 1 -.952-1.3 28.973 28.973 0 0 0 .879-3.537 1 1 0 0 1 1.967.362 30.756 30.756 0 0 1 -.942 3.783 1 1 0 0 1 -.952.692z"/><path d="m56.53 72h-35.7a1 1 0 0 1 -1-1v-7.17a2.943 2.943 0 0 0 -2.94-2.94h-2.88a4.62 4.62 0 0 1 -4.62-4.61v-8.84h-5.78a1 1 0 0 1 -.892-1.45l6.673-13.23a31 31 0 0 1 61.73-3.911 1 1 0 0 1 -1.982.262 29.191 29.191 0 0 0 -25.429-24.927 29.019 29.019 0 0 0 -32.32 28.816.992.992 0 0 1 -.108.45l-6.048 11.99h5.156a1 1 0 0 1 1 1v9.84a2.618 2.618 0 0 0 2.62 2.61h2.88a4.945 4.945 0 0 1 4.94 4.94v6.17h33.7a28.028 28.028 0 0 1 1.913-9.661 1 1 0 1 1 1.865.723 25.976 25.976 0 0 0 -1.778 9.408v.53a1 1 0 0 1 -1 1z"/><path d="m62.789 53.99a1 1 0 0 1 -.777-1.628l.083-.1c.184-.229.363-.45.55-.672.582-.7 1.134-1.428 1.642-2.164a1 1 0 1 1 1.647 1.135c-.541.785-1.132 1.563-1.755 2.312-.181.214-.351.426-.527.644l-.084.1a1 1 0 0 1 -.779.373z"/><path d="m49.423 39.286a1 1 0 0 1 -.707-1.707l5.078-5.079-5.078-5.079a1 1 0 1 1 1.414-1.414l5.785 5.786a1 1 0 0 1 0 1.414l-5.785 5.786a1 1 0 0 1 -.707.293z"/><path d="m31.1 39.286a1 1 0 0 1 -.707-.293l-5.787-5.786a1 1 0 0 1 0-1.414l5.794-5.786a1 1 0 1 1 1.414 1.414l-5.085 5.079 5.08 5.079a1 1 0 0 1 -.707 1.707z"/><path d="m35.248 47a.987.987 0 0 1 -.287-.042 1 1 0 0 1 -.671-1.245l8.1-27a1 1 0 0 1 1.916.574l-8.1 27a1 1 0 0 1 -.958.713z"/></svg>